<svg width="21" height="20" viewBox="0 0 21 20" fill="#000" xmlns="http://www.w3.org/2000/svg">
<path d="M20.3126 10.2103C20.3126 9.44113 19.6891 8.81762 18.92 8.81762H11.9567V1.85433C11.9567 1.08518 11.3332 0.46167 10.564 0.46167C9.79489 0.46167 9.17138 1.08518 9.17138 1.85433V8.81762H2.20809C1.43894 8.81762 0.81543 9.44113 0.81543 10.2103C0.81543 10.9794 1.43894 11.6029 2.20809 11.6029H9.17138V18.5662C9.17138 19.3354 9.79489 19.9589 10.564 19.9589C11.3332 19.9589 11.9567 19.3354 11.9567 18.5662V11.6029H18.92C19.6891 11.6029 20.3126 10.9794 20.3126 10.2103Z" fill="white"/>
</svg>
